<mxfile host="app.diagrams.net" modified="2023-04-25T03:09:02.615Z" agent="Mozilla/5.0 (Windows NT 10.0; Win64; x64) AppleWebKit/537.36 (KHTML, like Gecko) Chrome/109.0.0.0 Safari/537.36" version="21.2.1" etag="5E11C2u9-sNyAcSSy0NT" type="github">
  <diagram name="第 1 页" id="jEmvPvkDQ5gXuvWHOBak">
    <mxGraphModel>
      <root>
        <mxCell id="0" />
        <mxCell id="1" parent="0" />
      </root>
    </mxGraphModel>
  </diagram>
</mxfile>
